if (_typeface_js && _typeface_js.loadFace) _typeface_js.loadFace({"glyphs":{"S":{"x_min":36.96875,"x_max":539.828125,"ha":532,"o":"m 539 408 l 534 172 q 355 -10 531 -10 q 225 43 268 -10 l 220 15 l 55 33 l 38 355 l 235 368 l 235 348 q 235 337 235 348 q 241 287 235 300 q 280 271 250 271 q 343 289 314 271 q 373 341 373 308 q 355 439 373 418 q 205 475 323 475 q 70 516 103 475 q 38 661 39 554 l 37 827 q 91 953 35 906 q 227 1000 146 1000 q 396 940 343 1000 l 393 984 l 513 983 l 510 651 l 399 644 l 398 665 q 375 727 396 715 q 325 733 366 733 q 246 716 264 733 q 234 663 234 704 q 262 594 234 609 q 342 574 267 591 q 495 531 471 547 q 539 408 541 502 "},"¦":{"x_min":0,"x_max":0,"ha":1389},"/":{"x_min":9,"x_max":379.84375,"ha":324,"o":"m 379 997 l 121 -129 l 9 -129 l 267 997 l 379 997 "},"y":{"x_min":36,"x_max":611,"ha":593,"o":"m 611 987 l 592 730 l 538 723 l 394 448 l 390 270 l 462 268 l 438 7 l 155 -11 l 144 233 l 230 240 l 237 452 l 101 694 l 47 687 l 36 951 l 302 956 l 312 741 l 256 737 l 334 536 l 401 730 l 351 730 l 351 993 l 611 987 "},"≈":{"x_min":0,"x_max":0,"ha":1389},"Ž":{"x_min":0,"x_max":0,"ha":1389},"Á":{"x_min":0,"x_max":0,"ha":1389},"g":{"x_min":46,"x_max":577.953125,"ha":575,"o":"m 577 983 l 569 626 l 401 636 l 401 684 q 366 716 401 711 q 293 718 358 718 q 227 695 248 718 q 200 584 200 666 l 200 330 q 223 187 200 215 q 286 173 236 173 q 344 260 344 173 l 344 284 l 273 284 l 271 418 l 571 436 l 565 284 l 511 284 l 501 -30 l 380 -32 l 379 29 q 233 -25 307 -25 q 86 36 130 -25 q 46 216 46 91 l 46 741 q 105 923 46 859 q 264 983 162 983 q 366 970 314 983 q 457 926 432 954 l 457 980 l 577 983 "},"²":{"x_min":0,"x_max":0,"ha":1389},"–":{"x_min":0,"x_max":0,"ha":1389},"ë":{"x_min":0,"x_max":0,"ha":1389},"ƒ":{"x_min":0,"x_max":0,"ha":1389},"Î":{"x_min":0,"x_max":0,"ha":1389},"e":{"x_min":23,"x_max":567.453125,"ha":567,"o":"m 567 1000 l 559 609 l 441 605 l 443 713 l 220 713 l 220 547 l 448 551 l 442 431 l 279 438 l 274 262 l 403 259 l 402 345 l 566 354 l 559 0 l 42 -13 l 36 227 l 91 226 l 102 681 l 32 672 l 23 976 l 567 1000 "},"Ã":{"x_min":0,"x_max":0,"ha":1389},"J":{"x_min":28,"x_max":608.546875,"ha":601,"o":"m 608 996 l 594 805 l 537 804 l 533 251 q 466 26 533 83 q 290 -16 418 -16 q 115 52 155 -16 l 112 -33 l 28 -26 l 51 480 l 250 487 l 248 345 q 250 236 248 248 q 308 159 261 159 q 368 325 368 159 q 361 748 368 416 l 280 747 l 262 984 l 608 996 "},"»":{"x_min":0,"x_max":0,"ha":1389},"∆":{"x_min":0,"x_max":0,"ha":1389},"‐":{"x_min":83,"x_max":344.109375,"ha":331,"o":"m 344 318 l 83 318 l 83 460 l 344 460 l 344 318 "},"©":{"x_min":0,"x_max":0,"ha":1389},"˘":{"x_min":0,"x_max":0,"ha":1389},"≥":{"x_min":0,"x_max":0,"ha":1389},"ò":{"x_min":0,"x_max":0,"ha":1389},"^":{"x_min":151,"x_max":792.671875,"ha":793,"o":"m 792 772 l 789 537 l 718 537 l 718 600 l 584 600 l 584 500 l 718 502 l 718 430 l 620 436 l 616 328 l 695 328 l 695 380 l 789 385 l 789 172 l 473 164 l 471 308 l 508 308 l 513 581 l 471 576 l 471 635 l 452 633 l 364 465 l 364 357 l 406 357 l 393 200 l 222 188 l 214 335 l 268 340 l 271 467 l 189 612 l 157 608 l 151 769 l 310 772 l 316 642 l 282 639 l 330 518 l 370 635 l 339 635 l 339 792 l 495 789 l 494 759 l 792 772 "},"«":{"x_min":0,"x_max":0,"ha":1389},"D":{"x_min":23,"x_max":602.296875,"ha":603,"o":"m 602 737 l 591 256 q 517 61 588 109 q 238 6 446 13 l 46 0 l 43 237 l 116 244 l 113 654 l 41 650 l 23 974 l 249 987 q 318 990 286 990 q 542 932 479 990 q 602 737 604 874 m 420 509 q 332 590 420 588 l 236 593 l 239 188 l 329 193 q 404 211 388 195 q 418 272 417 225 l 420 509 "},"∙":{"x_min":0,"x_max":0,"ha":1389},"ł":{"x_min":0,"x_max":0,"ha":1389},"ÿ":{"x_min":0,"x_max":0,"ha":1389},"Ł":{"x_min":0,"x_max":0,"ha":1389},"í":{"x_min":0,"x_max":0,"ha":1389},"ˆ":{"x_min":0,"x_max":0,"ha":1389},"w":{"x_min":12,"x_max":849.5,"ha":843,"o":"m 849 940 l 832 738 l 764 748 l 716 265 l 817 259 l 807 11 l 655 3 l 460 490 l 334 43 l 24 38 l 16 279 l 85 277 l 85 733 l 13 731 l 12 976 l 328 970 l 323 718 l 238 726 l 232 308 l 428 775 l 602 365 l 643 763 l 541 768 l 534 940 l 849 940 "},"$":{"x_min":61.953125,"x_max":514.828125,"ha":532,"o":"m 514 416 l 510 204 q 370 41 506 51 l 384 -79 l 280 -72 l 282 51 q 232 88 252 62 l 227 62 l 78 79 l 63 369 l 241 380 l 241 363 q 241 352 241 363 q 246 308 241 319 q 281 293 253 293 q 338 310 312 293 q 364 356 364 327 q 348 444 364 424 q 213 477 320 477 q 92 515 123 477 q 63 644 64 547 l 62 794 q 99 895 60 854 q 192 944 134 933 l 180 1086 l 318 1077 l 300 940 q 385 895 359 926 l 382 936 l 491 934 l 488 636 l 388 630 l 387 648 q 367 704 385 693 q 321 709 357 709 q 252 696 267 709 q 238 647 238 683 q 264 584 238 597 q 337 566 268 581 q 474 529 453 541 q 514 416 516 502 "},"∫":{"x_min":0,"x_max":0,"ha":1389},"\\":{"x_min":9,"x_max":379.84375,"ha":324,"o":"m 9 997 l 267 -129 l 379 -129 l 121 997 l 9 997 "},"Ì":{"x_min":0,"x_max":0,"ha":1389},"µ":{"x_min":0,"x_max":0,"ha":1389},"Ç":{"x_min":0,"x_max":0,"ha":1389},"’":{"x_min":0,"x_max":0,"ha":1389},"-":{"x_min":83,"x_max":344.109375,"ha":331,"o":"m 344 318 l 83 318 l 83 460 l 344 460 l 344 318 "},"Q":{"x_min":33.96875,"x_max":621.5,"ha":525,"o":"m 621 -147 l 534 -145 q 350 -8 409 -142 q 264 -8 313 -10 q 81 58 134 -1 q 34 233 32 113 l 40 757 q 94 940 42 886 q 278 997 146 995 q 469 940 413 998 q 524 755 525 883 l 517 223 q 453 23 515 68 q 584 -30 495 -30 q 611 -29 599 -30 l 621 -147 m 368 363 l 363 635 q 349 709 361 692 q 278 733 336 726 q 220 710 239 737 q 202 630 200 683 l 207 362 q 275 273 209 268 l 245 409 l 328 443 l 357 311 q 368 363 368 330 "},"M":{"x_min":40,"x_max":862.21875,"ha":861,"o":"m 862 263 l 860 0 l 566 19 l 553 277 l 628 280 l 602 684 l 474 222 l 231 630 l 231 273 l 335 269 l 344 0 l 45 6 l 42 258 l 110 268 l 119 730 l 41 725 l 40 993 l 180 993 l 444 505 l 548 993 l 860 990 l 860 716 l 790 719 l 795 272 l 862 263 "},"C":{"x_min":39.828125,"x_max":569.15625,"ha":546,"o":"m 569 978 l 546 581 l 334 588 l 340 630 q 341 659 341 645 q 280 733 341 733 q 217 630 212 733 l 231 334 q 245 256 234 277 q 294 231 259 231 q 353 334 360 231 l 342 483 l 559 490 l 541 273 q 477 93 530 148 q 296 32 420 33 q 108 90 163 32 q 51 273 55 144 l 40 727 q 77 910 37 851 q 213 969 117 969 q 287 968 276 969 q 348 934 323 962 l 348 988 l 569 978 "},"œ":{"x_min":0,"x_max":0,"ha":1389},"!":{"x_min":44,"x_max":370.390625,"ha":365,"o":"m 370 987 l 355 741 l 298 737 l 305 519 l 363 499 l 338 240 l 91 256 l 81 469 l 139 462 l 127 723 l 60 723 l 44 1001 l 370 987 m 349 190 l 330 -27 l 98 -39 l 87 186 l 349 190 "},"ç":{"x_min":0,"x_max":0,"ha":1389},"È":{"x_min":0,"x_max":0,"ha":1389},"{":{"x_min":153,"x_max":1128,"ha":1126,"o":"m 1128 434 l 1118 237 l 821 230 l 815 175 l 641 181 l 641 318 l 672 316 l 676 476 l 571 470 l 571 318 l 621 322 l 616 201 l 458 195 l 455 320 l 482 318 l 486 590 l 434 586 l 433 643 l 384 641 l 384 326 l 425 326 l 422 225 l 236 218 l 230 316 l 282 318 l 286 605 l 229 602 l 229 558 l 157 551 l 153 765 l 508 788 l 508 768 l 614 773 l 605 612 l 584 615 l 587 537 l 668 544 l 672 644 l 646 647 l 641 773 l 786 769 l 784 783 l 1112 797 l 1107 562 l 1036 561 l 1037 625 l 904 625 l 904 526 l 1040 527 l 1037 456 l 939 461 l 947 395 l 1025 393 l 1030 430 l 1128 434 m 837 373 l 833 606 l 791 601 l 790 615 l 775 615 l 764 318 l 807 319 l 804 375 l 837 373 "},"X":{"x_min":44,"x_max":669.015625,"ha":654,"o":"m 669 1001 l 662 746 l 599 737 l 466 498 l 616 290 l 653 290 l 646 9 l 364 0 l 356 247 l 448 265 l 342 425 l 253 269 l 328 269 l 306 0 l 50 0 l 44 265 l 125 277 l 264 508 l 107 723 l 46 722 l 50 997 l 352 995 l 355 730 l 302 733 l 382 594 l 470 737 l 396 744 l 396 974 l 669 1001 "},"ô":{"x_min":0,"x_max":0,"ha":1389},"¼":{"x_min":0,"x_max":0,"ha":1389},"#":{"x_min":42,"x_max":676.71875,"ha":732,"o":"m 676 355 q 648 251 676 284 q 539 211 617 215 q 415 240 447 205 q 387 351 387 269 l 383 590 l 323 586 l 322 643 l 273 641 l 273 326 l 314 326 l 311 225 l 125 218 l 119 316 l 171 318 l 175 605 l 118 602 l 118 558 l 46 551 l 42 766 l 397 790 l 396 726 q 530 790 423 792 q 653 745 621 787 q 676 628 676 712 l 676 355 m 576 569 q 565 617 576 601 q 530 631 554 633 q 489 618 498 629 q 479 573 480 606 l 476 434 q 530 380 475 387 q 573 434 572 376 l 576 569 "},"Ê":{"x_min":0,"x_max":0,"ha":1389},")":{"x_min":79,"x_max":358.15625,"ha":386,"o":"m 358 955 l 317 -24 l 102 0 l 79 248 l 167 231 l 194 779 l 101 768 l 79 971 l 358 955 "},"Å":{"x_min":0,"x_max":0,"ha":1389},"Δ":{"x_min":0,"x_max":0,"ha":1389},"ø":{"x_min":0,"x_max":0,"ha":1389},"â":{"x_min":0,"x_max":0,"ha":1389},"}":{"x_min":132.953125,"x_max":1376.0625,"ha":1381,"o":"m 1376 825 l 1370 590 l 1299 588 l 1301 652 l 1167 652 l 1167 554 l 1303 555 l 1301 484 l 1202 488 l 1199 381 l 1277 380 l 1276 433 l 1374 437 l 1370 225 l 1060 217 l 1058 308 q 858 241 1026 231 l 727 248 l 726 217 l 417 222 l 416 325 q 288 252 392 258 q 164 282 196 247 q 137 393 137 311 l 133 686 q 165 799 131 764 q 280 833 199 834 q 420 744 401 828 l 417 806 l 613 813 l 608 670 l 548 663 l 552 388 l 651 393 l 652 486 l 731 493 l 728 365 l 734 444 l 776 441 l 777 687 l 734 691 l 737 833 l 852 828 q 987 812 945 826 q 1051 758 1034 797 l 1048 811 l 1376 825 m 1096 634 l 1064 630 l 1070 391 q 1069 361 1070 375 l 1089 361 l 1096 634 m 960 454 l 959 597 q 951 634 959 626 q 906 644 942 643 l 852 647 l 851 404 l 908 405 q 960 454 960 406 m 458 648 l 426 645 l 426 397 q 424 362 426 377 l 455 362 l 458 648 m 326 612 q 314 660 326 644 q 280 675 303 676 q 239 661 248 672 q 228 616 230 649 l 226 476 q 280 422 224 429 q 323 476 321 418 l 326 612 "},"‰":{"x_min":0,"x_max":0,"ha":1389},"Ä":{"x_min":0,"x_max":0,"ha":1389},"⋲":{"x_min":0,"x_max":0,"ha":1389},"¸":{"x_min":0,"x_max":0,"ha":1389},"a":{"x_min":40,"x_max":648.328125,"ha":643,"o":"m 648 54 l 406 65 l 391 254 l 449 254 l 437 381 l 301 381 l 281 180 l 341 180 l 346 0 l 40 -11 l 51 180 l 101 180 l 190 770 l 134 770 l 126 994 l 581 963 l 578 751 l 523 751 l 599 254 l 648 254 l 648 54 m 419 502 l 370 716 l 324 502 l 419 502 "},"—":{"x_min":0,"x_max":0,"ha":1389},"=":{"x_min":132.953125,"x_max":1376.0625,"ha":1381,"o":"m 1376 825 l 1370 590 l 1299 588 l 1301 652 l 1167 652 l 1167 554 l 1303 555 l 1301 484 l 1202 488 l 1199 381 l 1277 380 l 1276 433 l 1374 437 l 1370 225 l 1060 217 l 1058 308 q 858 241 1026 231 l 727 248 l 726 217 l 417 222 l 416 325 q 288 252 392 258 q 164 282 196 247 q 137 393 137 311 l 133 686 q 165 799 131 764 q 280 833 199 834 q 420 744 401 828 l 417 806 l 613 813 l 608 670 l 548 663 l 552 388 l 651 393 l 652 486 l 731 493 l 728 365 l 734 444 l 776 441 l 777 687 l 734 691 l 737 833 l 852 828 q 987 812 945 826 q 1051 758 1034 797 l 1048 811 l 1376 825 m 1096 634 l 1064 630 l 1070 391 q 1069 361 1070 375 l 1089 361 l 1096 634 m 960 454 l 959 597 q 951 634 959 626 q 906 644 942 643 l 852 647 l 851 404 l 908 405 q 960 454 960 406 m 458 648 l 426 645 l 426 397 q 424 362 426 377 l 455 362 l 458 648 m 326 612 q 314 660 326 644 q 280 675 303 676 q 239 661 248 672 q 228 616 230 649 l 226 476 q 280 422 224 429 q 323 476 321 418 l 326 612 "},"N":{"x_min":37,"x_max":728.671875,"ha":719,"o":"m 728 963 l 717 715 l 649 724 l 639 70 l 453 56 l 250 769 l 250 283 l 320 278 l 307 0 l 48 0 l 37 244 l 118 245 l 114 724 l 60 730 l 48 988 l 328 978 l 513 312 l 523 714 l 456 724 l 450 940 l 728 963 "},"˚":{"x_min":0,"x_max":0,"ha":1389},"ú":{"x_min":0,"x_max":0,"ha":1389},"⁄":{"x_min":0,"x_max":0,"ha":1389},"2":{"x_min":39.859375,"x_max":540,"ha":540,"o":"m 540 334 l 533 11 l 44 0 l 40 118 q 51 197 38 165 q 77 263 63 230 q 203 419 103 329 q 319 494 215 429 q 381 573 383 534 l 374 731 q 314 804 371 804 q 246 727 242 804 l 255 587 q 110 575 215 584 q 40 568 76 570 l 49 736 q 330 986 62 986 q 540 733 540 986 l 540 634 q 503 508 540 554 q 405 424 481 477 q 294 338 324 369 q 245 247 248 294 l 420 250 q 424 337 421 284 l 540 334 "},"ü":{"x_min":0,"x_max":0,"ha":1389},"¯":{"x_min":0,"x_max":0,"ha":1389},"Z":{"x_min":34,"x_max":552.0625,"ha":503,"o":"m 552 348 l 538 8 l 34 0 l 46 193 l 415 734 l 178 738 l 178 634 l 67 629 l 56 975 l 549 988 l 538 726 l 238 269 l 435 269 l 450 351 l 552 348 "},"u":{"x_min":53,"x_max":662.71875,"ha":639,"o":"m 662 955 l 644 709 l 575 711 l 591 275 q 540 98 596 156 q 361 32 484 40 q 184 83 237 23 q 136 259 136 136 l 132 638 l 66 637 l 53 888 l 323 886 l 336 620 l 283 622 l 298 395 q 357 309 304 309 q 439 383 439 309 l 433 698 l 372 693 l 357 990 l 662 955 "},"":{"x_min":0,"x_max":0,"ha":1389},"˜":{"x_min":0,"x_max":0,"ha":1389},"Ó":{"x_min":0,"x_max":0,"ha":1389},"k":{"x_min":37,"x_max":688.390625,"ha":671,"o":"m 688 958 l 670 720 l 591 729 l 399 551 l 566 265 l 638 272 l 670 0 l 392 1 l 382 272 l 435 269 l 302 497 l 282 262 l 321 261 l 324 8 l 39 18 l 48 305 l 102 301 l 98 795 l 41 790 l 37 1001 l 345 1001 l 343 766 l 275 769 l 282 579 l 452 759 l 388 766 l 378 975 l 688 958 "},"ˇ":{"x_min":0,"x_max":0,"ha":1389},"Ù":{"x_min":0,"x_max":0,"ha":1389},"Ÿ":{"x_min":0,"x_max":0,"ha":1389},"¢":{"x_min":0,"x_max":0,"ha":1389},"Ω":{"x_min":0,"x_max":0,"ha":1389},"ß":{"x_min":0,"x_max":0,"ha":1389},"é":{"x_min":0,"x_max":0,"ha":1389},"s":{"x_min":36.96875,"x_max":534.3125,"ha":532,"o":"m 534 172 q 355 -10 538 -10 q 225 43 268 -10 l 220 15 l 55 33 l 38 355 l 235 368 l 235 348 q 235 337 235 348 q 241 287 235 300 q 280 271 250 271 q 342 276 328 271 q 373 341 373 290 q 353 436 373 414 q 205 475 323 468 q 71 518 103 480 q 38 661 39 555 l 37 827 q 91 953 35 906 q 227 1000 146 1000 q 396 940 343 1000 l 393 984 l 513 983 l 510 651 l 399 644 l 398 665 q 375 727 396 715 q 325 733 366 733 q 246 716 264 733 q 234 663 234 704 q 262 594 234 609 q 342 574 267 591 q 430 561 387 567 q 500 516 478 548 q 531 385 530 474 l 534 172 "},"B":{"x_min":22,"x_max":627.5625,"ha":628,"o":"m 627 200 q 335 0 627 0 l 35 0 l 40 238 l 109 243 l 101 723 l 35 723 l 22 974 l 294 974 q 544 944 477 974 q 627 801 627 908 l 627 658 q 594 569 627 598 q 503 536 566 546 q 627 422 627 519 l 627 200 m 381 629 l 381 644 q 372 691 381 677 q 333 705 362 705 q 310 704 323 705 l 228 694 l 227 570 l 310 570 q 367 581 352 572 q 381 629 381 591 m 392 248 l 392 319 q 378 367 392 356 q 322 377 365 377 l 231 377 l 233 191 l 322 190 q 380 200 367 188 q 392 248 392 212 "},"…":{"x_min":0,"x_max":0,"ha":1389},"?":{"x_min":32,"x_max":532,"ha":531,"o":"m 532 827 l 529 661 q 496 518 527 555 q 362 475 465 480 q 213 436 244 468 q 194 341 194 413 l 290 333 l 276 212 l 32 208 l 37 386 q 68 516 40 475 q 137 561 91 550 q 225 575 182 568 q 307 594 301 591 q 334 663 334 609 q 320 716 334 704 q 243 733 302 733 q 191 727 201 733 q 169 665 172 715 l 169 644 l 58 651 l 54 983 l 173 984 l 170 940 q 340 1000 225 1000 q 476 953 420 1000 q 532 827 532 906 m 302 173 l 283 -44 l 52 -56 l 40 170 l 302 173 "},"H":{"x_min":16,"x_max":656.28125,"ha":651,"o":"m 656 223 l 647 -11 l 359 0 l 359 227 l 410 226 l 414 491 l 241 483 l 241 227 l 322 234 l 316 34 l 52 25 l 49 231 l 91 227 l 99 730 l 25 724 l 16 974 l 311 988 l 297 719 l 261 724 l 267 593 l 402 605 l 407 773 l 365 776 l 359 988 l 654 978 l 646 724 l 581 724 l 563 227 l 656 223 "},"î":{"x_min":0,"x_max":0,"ha":1389},"c":{"x_min":39.828125,"x_max":569.15625,"ha":546,"o":"m 569 978 l 546 581 l 334 588 l 340 630 q 341 659 341 645 q 280 733 341 733 q 217 630 212 733 l 231 334 q 245 256 234 277 q 294 231 259 231 q 353 334 360 231 l 342 483 l 559 490 l 541 273 q 477 93 530 148 q 296 32 420 33 q 108 90 163 32 q 51 273 55 144 l 40 727 q 77 910 37 851 q 213 969 117 969 q 287 968 276 969 q 348 934 323 962 l 348 988 l 569 978 "},"¶":{"x_min":0,"x_max":0,"ha":1389},"−":{"x_min":0,"x_max":0,"ha":1389},"≠":{"x_min":0,"x_max":0,"ha":1389},"•":{"x_min":0,"x_max":0,"ha":1389},"¥":{"x_min":0,"x_max":0,"ha":1389},"(":{"x_min":93,"x_max":372.15625,"ha":386,"o":"m 372 248 l 349 0 l 134 -24 l 93 955 l 372 971 l 349 768 l 256 779 l 284 232 l 372 248 "},"U":{"x_min":33,"x_max":642.734375,"ha":639,"o":"m 642 888 l 628 637 l 563 638 l 560 259 q 510 83 559 136 q 334 32 458 23 q 155 98 210 40 q 103 275 99 156 l 120 711 l 51 709 l 33 955 l 338 990 l 323 693 l 262 698 l 256 383 q 338 309 256 309 q 396 395 391 309 l 412 622 l 359 620 l 371 886 l 642 888 "},"◊":{"x_min":0,"x_max":0,"ha":1389},"Ñ":{"x_min":0,"x_max":0,"ha":1389},"F":{"x_min":26,"x_max":573.21875,"ha":565,"o":"m 573 604 l 452 609 l 456 731 l 280 724 l 274 526 l 439 536 l 428 426 l 280 426 l 274 269 l 362 270 l 348 -13 l 37 0 l 42 244 l 107 244 l 116 729 l 37 724 l 26 976 l 559 988 l 573 604 "},"­":{"x_min":0,"x_max":0,"ha":1389},":":{"x_min":87,"x_max":349.5,"ha":365,"o":"m 334 760 l 330 545 l 106 527 l 87 746 l 334 760 m 349 190 l 330 -27 l 98 -39 l 87 186 l 349 190 "},"Û":{"x_min":0,"x_max":0,"ha":1389},"*":{"x_min":42,"x_max":676.71875,"ha":732,"o":"m 676 355 q 648 251 676 284 q 539 211 617 215 q 415 240 447 205 q 387 351 387 269 l 383 590 l 323 586 l 322 643 l 273 641 l 273 326 l 314 326 l 311 225 l 125 218 l 119 316 l 171 318 l 175 605 l 118 602 l 118 558 l 46 551 l 42 766 l 397 790 l 396 726 q 530 790 423 792 q 653 745 621 787 q 676 628 676 712 l 676 355 m 576 569 q 565 617 576 601 q 530 631 554 633 q 489 618 498 629 q 479 573 480 606 l 476 434 q 530 380 475 387 q 573 434 572 376 l 576 569 "},"†":{"x_min":0,"x_max":0,"ha":1389},"°":{"x_min":0,"x_max":0,"ha":1389},"V":{"x_min":40,"x_max":630.28125,"ha":618,"o":"m 630 988 l 615 729 l 573 723 l 433 -17 l 221 0 l 110 731 l 49 724 l 40 973 l 276 981 l 266 724 l 208 724 l 317 123 l 417 695 l 333 693 l 330 1007 l 630 988 "},"å":{"x_min":0,"x_max":0,"ha":1389}," ":{"x_min":0,"x_max":0,"ha":1389},"0":{"x_min":33.96875,"x_max":524.28125,"ha":525,"o":"m 524 259 q 477 86 524 140 q 293 18 424 24 q 88 66 140 9 q 40 251 42 115 l 34 741 q 89 928 32 869 q 279 983 146 987 q 482 909 431 978 q 522 715 522 853 l 524 259 m 356 616 q 338 695 357 669 q 279 719 320 721 q 211 696 227 714 q 195 621 196 677 l 189 391 q 214 322 188 343 q 279 301 234 306 q 350 390 349 294 l 356 616 "},"":{"x_min":0,"x_max":0,"ha":1389},"”":{"x_min":0,"x_max":0,"ha":1389},"¾":{"x_min":0,"x_max":0,"ha":1389},"@":{"x_min":107,"x_max":772.28125,"ha":826,"o":"m 772 761 l 768 563 l 698 558 l 697 615 l 648 613 l 648 298 l 688 298 l 686 196 l 500 190 l 494 288 l 545 290 l 550 577 l 493 575 l 493 530 l 420 523 l 416 705 l 415 659 l 382 659 l 436 305 l 465 305 l 472 190 l 287 196 l 291 305 l 327 305 l 315 425 l 233 425 l 226 348 l 261 348 l 252 236 l 107 229 l 107 348 l 136 348 l 182 647 l 148 647 l 147 774 l 420 793 l 418 737 l 772 761 m 301 497 l 273 626 l 244 497 l 301 497 "},"ö":{"x_min":0,"x_max":0,"ha":1389},"i":{"x_min":44,"x_max":387.0625,"ha":382,"o":"m 387 727 l 305 717 l 298 305 l 355 301 l 370 55 l 44 42 l 60 319 l 127 319 l 139 775 l 50 768 l 60 980 l 370 1001 l 387 727 "},"≤":{"x_min":0,"x_max":0,"ha":1389},"Õ":{"x_min":0,"x_max":0,"ha":1389},"þ":{"x_min":0,"x_max":0,"ha":1389},"]":{"x_min":79,"x_max":358.15625,"ha":386,"o":"m 358 955 l 317 -24 l 102 0 l 79 248 l 167 231 l 194 779 l 101 768 l 79 971 l 358 955 "},"m":{"x_min":40,"x_max":862.21875,"ha":861,"o":"m 862 263 l 860 0 l 566 19 l 553 277 l 628 280 l 602 684 l 474 222 l 231 630 l 231 273 l 335 269 l 344 0 l 45 6 l 42 258 l 110 268 l 119 730 l 41 725 l 40 993 l 180 993 l 444 505 l 548 993 l 860 990 l 860 716 l 790 719 l 795 272 l 862 263 "},"8":{"x_min":69,"x_max":548.171875,"ha":538,"o":"m 546 259 q 548 223 548 241 q 303 -10 548 3 q 69 215 69 -22 l 69 344 q 174 524 69 494 q 99 584 121 543 q 80 694 80 622 l 80 780 q 303 996 80 977 q 527 793 527 1014 l 527 694 q 507 584 527 622 q 432 524 485 543 q 507 467 485 509 q 538 344 530 424 l 546 259 m 389 658 q 382 711 389 695 q 337 733 370 733 q 282 662 282 733 q 337 583 282 583 q 389 658 389 583 m 319 352 q 262 438 319 438 q 205 352 205 438 q 212 293 205 309 q 262 266 224 266 q 319 352 319 266 "},"ž":{"x_min":0,"x_max":0,"ha":1389},"R":{"x_min":39,"x_max":695.9375,"ha":694,"o":"m 695 234 q 665 68 695 111 q 545 26 634 26 q 407 184 407 26 q 411 276 407 225 q 416 356 416 327 q 340 441 416 448 l 275 434 l 280 240 l 343 235 l 339 -10 l 51 -28 l 44 185 l 129 198 l 115 694 l 47 690 l 39 985 l 268 988 q 514 957 447 990 q 589 801 594 917 l 582 648 q 550 557 579 584 q 443 515 522 529 q 541 486 518 515 q 565 380 565 458 l 565 319 q 591 282 565 282 q 616 298 611 282 q 620 351 620 311 l 620 379 l 694 384 q 695 234 695 362 m 436 747 q 423 795 437 783 q 365 805 409 808 l 287 798 l 295 643 l 362 644 q 417 655 404 645 q 433 704 430 665 l 436 747 "},"á":{"x_min":0,"x_max":0,"ha":1389},"×":{"x_min":0,"x_max":0,"ha":1389},"o":{"x_min":62,"x_max":552.3125,"ha":546,"o":"m 552 231 q 498 46 553 103 q 306 -10 439 -14 q 103 63 155 -5 q 63 258 63 119 l 62 755 q 109 928 62 874 q 292 997 162 990 q 499 948 445 1005 q 545 763 543 899 l 552 231 m 396 623 q 371 693 398 672 q 306 714 352 708 q 235 625 237 722 l 230 356 q 248 277 230 304 q 306 254 267 251 q 374 276 359 258 q 391 351 389 295 l 396 623 "},"5":{"x_min":37,"x_max":534.3125,"ha":532,"o":"m 534 172 q 355 -10 538 -10 q 225 43 268 -10 l 220 15 l 55 33 l 38 355 l 235 368 l 235 348 q 235 337 235 348 q 241 287 235 300 q 280 270 250 270 q 342 276 328 270 q 373 341 373 290 q 353 436 373 413 q 205 475 323 468 q 71 518 102 480 q 38 661 39 555 l 37 925 l 396 940 l 393 985 l 513 983 l 510 651 l 399 644 l 398 665 q 398 725 396 691 l 235 723 q 234 663 234 686 q 262 594 234 609 q 342 574 267 591 q 430 561 387 568 q 500 516 478 548 q 531 385 530 474 l 534 172 "},"õ":{"x_min":0,"x_max":0,"ha":1389},"7":{"x_min":32,"x_max":559.78125,"ha":561,"o":"m 559 769 l 494 769 l 308 293 l 368 297 l 375 29 l 48 18 l 58 255 l 159 266 l 332 726 l 168 719 l 165 563 l 32 551 l 43 1013 l 555 1003 l 559 769 "},"K":{"x_min":37,"x_max":688.390625,"ha":671,"o":"m 688 43 l 378 26 l 388 234 l 452 241 l 282 422 l 275 231 l 343 234 l 345 0 l 37 0 l 41 209 l 98 205 l 102 698 l 48 695 l 39 983 l 324 993 l 321 740 l 282 738 l 302 504 l 435 731 l 382 729 l 392 999 l 670 1001 l 638 729 l 566 734 l 399 450 l 591 272 l 670 280 l 688 43 "},",":{"x_min":87,"x_max":349.5,"ha":365,"o":"m 349 190 l 330 -305 l 98 -317 l 87 185 l 349 190 "},"d":{"x_min":23,"x_max":602.296875,"ha":603,"o":"m 602 252 q 542 56 604 113 q 318 0 479 0 q 249 2 286 0 l 23 15 l 41 340 l 113 336 l 116 744 l 43 751 l 46 990 l 238 983 q 517 928 446 976 q 591 733 588 880 l 602 252 m 420 356 l 418 595 q 404 655 417 643 q 329 675 388 670 l 239 679 l 236 275 l 332 276 q 420 356 420 279 "},"¨":{"x_min":0,"x_max":0,"ha":1389},"Ô":{"x_min":0,"x_max":0,"ha":1389},"E":{"x_min":23,"x_max":575.78125,"ha":567,"o":"m 575 404 l 559 0 l 42 -13 l 36 227 l 91 226 l 102 681 l 32 672 l 23 976 l 567 1000 l 559 609 l 441 605 l 443 722 l 335 723 l 335 549 l 448 549 l 442 431 l 279 439 l 274 262 l 403 259 l 396 405 l 575 404 "},"Y":{"x_min":36,"x_max":611,"ha":593,"o":"m 611 987 l 592 730 l 538 723 l 394 448 l 390 270 l 462 268 l 438 7 l 155 -11 l 144 233 l 230 240 l 237 452 l 101 694 l 47 687 l 36 951 l 302 956 l 312 741 l 256 737 l 334 536 l 401 730 l 351 730 l 351 993 l 611 987 "},"\"":{"x_min":69,"x_max":548.171875,"ha":549,"o":"m 548 918 q 544 890 548 906 l 474 578 l 438 578 l 369 890 q 364 915 364 906 q 456 993 364 993 q 548 918 548 993 m 248 918 q 246 890 248 898 l 177 578 l 141 578 l 71 890 q 69 915 69 898 q 94 971 69 949 q 159 993 119 993 q 248 918 248 993 "},"‹":{"x_min":0,"x_max":0,"ha":1389},"˙":{"x_min":0,"x_max":0,"ha":1389},"ê":{"x_min":0,"x_max":0,"ha":1389},"Ï":{"x_min":0,"x_max":0,"ha":1389},"„":{"x_min":0,"x_max":0,"ha":1389},"Â":{"x_min":0,"x_max":0,"ha":1389},"Í":{"x_min":0,"x_max":0,"ha":1389},"´":{"x_min":0,"x_max":0,"ha":1389},"ì":{"x_min":0,"x_max":0,"ha":1389},"±":{"x_min":0,"x_max":0,"ha":1389},"Ú":{"x_min":0,"x_max":0,"ha":1389},"|":{"x_min":151,"x_max":792.671875,"ha":793,"o":"m 792 772 l 789 537 l 718 537 l 718 600 l 584 600 l 584 500 l 718 502 l 718 430 l 620 436 l 616 328 l 695 328 l 695 380 l 789 385 l 789 172 l 473 164 l 471 308 l 508 308 l 513 581 l 471 576 l 471 635 l 452 633 l 364 465 l 364 357 l 406 357 l 393 200 l 222 188 l 214 335 l 268 340 l 271 467 l 189 612 l 157 608 l 151 769 l 310 772 l 316 642 l 282 639 l 330 518 l 370 635 l 339 635 l 339 792 l 495 789 l 494 759 l 792 772 "},"§":{"x_min":0,"x_max":0,"ha":1389},"Ý":{"x_min":0,"x_max":0,"ha":1389},"b":{"x_min":22,"x_max":627.5625,"ha":628,"o":"m 627 172 q 544 29 627 65 q 294 0 477 0 l 22 0 l 35 250 l 101 250 l 109 730 l 40 734 l 35 974 l 335 974 q 627 773 627 974 l 627 551 q 503 437 627 454 q 594 404 566 427 q 627 315 627 375 l 627 172 m 395 652 l 395 668 q 385 715 395 701 q 347 729 376 729 q 324 727 337 729 l 242 718 l 241 593 l 324 594 q 381 604 366 595 q 395 652 395 613 m 406 272 l 406 343 q 392 390 406 380 q 335 401 378 401 l 245 401 l 247 213 l 335 213 q 394 224 381 212 q 406 272 406 236 "},"q":{"x_min":33.96875,"x_max":621.5,"ha":525,"o":"m 621 -147 l 534 -145 q 350 -8 409 -142 q 264 -8 313 -10 q 81 58 134 -1 q 34 233 32 113 l 40 757 q 94 940 42 886 q 278 997 146 995 q 469 940 413 998 q 524 755 525 883 l 517 223 q 453 23 515 68 q 584 -30 495 -30 q 611 -29 599 -30 l 621 -147 m 368 363 l 363 635 q 349 709 361 692 q 278 733 336 726 q 220 710 239 737 q 202 630 200 683 l 207 362 q 275 273 209 268 l 245 409 l 328 443 l 357 311 q 368 363 368 330 "},"Ω":{"x_min":0,"x_max":0,"ha":1389},"Ö":{"x_min":0,"x_max":0,"ha":1389},"z":{"x_min":34,"x_max":552.0625,"ha":503,"o":"m 552 348 l 538 8 l 34 0 l 46 193 l 415 734 l 178 738 l 178 634 l 67 629 l 56 975 l 549 988 l 538 726 l 238 269 l 435 269 l 450 351 l 552 348 "},"™":{"x_min":0,"x_max":0,"ha":1389},"ã":{"x_min":0,"x_max":0,"ha":1389},"æ":{"x_min":0,"x_max":0,"ha":1389},"®":{"x_min":0,"x_max":0,"ha":1389},"É":{"x_min":0,"x_max":0,"ha":1389},"~":{"x_min":42,"x_max":676.71875,"ha":732,"o":"m 676 355 q 648 251 676 284 q 539 211 617 215 q 415 240 447 205 q 387 351 387 269 l 383 590 l 323 586 l 322 643 l 273 641 l 273 326 l 314 326 l 311 225 l 125 218 l 119 316 l 171 318 l 175 605 l 118 602 l 118 558 l 46 551 l 42 766 l 397 790 l 396 726 q 530 790 423 792 q 653 745 621 787 q 676 628 676 712 l 676 355 m 576 569 q 565 617 576 601 q 530 631 554 633 q 489 618 498 629 q 479 573 480 606 l 476 434 q 530 380 475 387 q 573 434 572 376 l 576 569 "},"³":{"x_min":0,"x_max":0,"ha":1389},"¡":{"x_min":0,"x_max":0,"ha":1389},"[":{"x_min":93,"x_max":372.15625,"ha":386,"o":"m 372 248 l 349 0 l 134 -24 l 93 955 l 372 971 l 349 768 l 256 779 l 284 232 l 372 248 "},"L":{"x_min":32,"x_max":559.78125,"ha":561,"o":"m 559 479 l 550 18 l 37 28 l 32 261 l 98 261 l 102 737 l 44 733 l 37 1001 l 362 1013 l 352 775 l 252 764 l 261 304 l 425 311 l 426 466 l 559 479 "}," ":{"x_min":0,"x_max":0,"ha":303},"∑":{"x_min":0,"x_max":0,"ha":1389},"%":{"x_min":153,"x_max":1128,"ha":1126,"o":"m 1128 434 l 1118 237 l 821 230 l 815 175 l 641 181 l 641 318 l 672 316 l 676 476 l 571 470 l 571 318 l 621 322 l 616 201 l 458 195 l 455 320 l 482 318 l 486 590 l 434 586 l 433 643 l 384 641 l 384 326 l 425 326 l 422 225 l 236 218 l 230 316 l 282 318 l 286 605 l 229 602 l 229 558 l 157 551 l 153 765 l 508 788 l 508 768 l 614 773 l 605 612 l 584 615 l 587 537 l 668 544 l 672 644 l 646 647 l 641 773 l 786 769 l 784 783 l 1112 797 l 1107 562 l 1036 561 l 1037 625 l 904 625 l 904 526 l 1040 527 l 1037 456 l 939 461 l 947 395 l 1025 393 l 1030 430 l 1128 434 m 837 373 l 833 606 l 791 601 l 790 615 l 775 615 l 764 318 l 807 319 l 804 375 l 837 373 "},"P":{"x_min":25,"x_max":572.34375,"ha":569,"o":"m 572 801 l 568 562 q 376 388 565 401 q 324 380 372 387 q 270 373 277 373 l 279 254 l 366 247 l 358 13 l 36 0 l 31 229 l 111 227 l 116 722 l 36 723 l 25 969 l 252 988 q 329 990 293 990 q 515 945 456 990 q 572 801 575 901 m 387 666 q 343 727 390 727 q 315 725 331 727 l 270 719 l 279 500 l 315 500 q 384 581 381 500 l 387 666 "},"∏":{"x_min":0,"x_max":0,"ha":1389},"À":{"x_min":0,"x_max":0,"ha":1389},"_":{"x_min":132.953125,"x_max":1376.0625,"ha":1381,"o":"m 1376 825 l 1370 590 l 1299 588 l 1301 652 l 1167 652 l 1167 554 l 1303 555 l 1301 484 l 1202 488 l 1199 381 l 1277 380 l 1276 433 l 1374 437 l 1370 225 l 1060 217 l 1058 308 q 858 241 1026 231 l 727 248 l 726 217 l 417 222 l 416 325 q 288 252 392 258 q 164 282 196 247 q 137 393 137 311 l 133 686 q 165 799 131 764 q 280 833 199 834 q 420 744 401 828 l 417 806 l 613 813 l 608 670 l 548 663 l 552 388 l 651 393 l 652 486 l 731 493 l 728 365 l 734 444 l 776 441 l 777 687 l 734 691 l 737 833 l 852 828 q 987 812 945 826 q 1051 758 1034 797 l 1048 811 l 1376 825 m 1096 634 l 1064 630 l 1070 391 q 1069 361 1070 375 l 1089 361 l 1096 634 m 960 454 l 959 597 q 951 634 959 626 q 906 644 942 643 l 852 647 l 851 404 l 908 405 q 960 454 960 406 m 458 648 l 426 645 l 426 397 q 424 362 426 377 l 455 362 l 458 648 m 326 612 q 314 660 326 644 q 280 675 303 676 q 239 661 248 672 q 228 616 230 649 l 226 476 q 280 422 224 429 q 323 476 321 418 l 326 612 "},"ñ":{"x_min":0,"x_max":0,"ha":1389},"+":{"x_min":153,"x_max":1128,"ha":1126,"o":"m 1128 434 l 1118 237 l 821 230 l 815 175 l 641 181 l 641 318 l 672 316 l 676 476 l 571 470 l 571 318 l 621 322 l 616 201 l 458 195 l 455 320 l 482 318 l 486 590 l 434 586 l 433 643 l 384 641 l 384 326 l 425 326 l 422 225 l 236 218 l 230 316 l 282 318 l 286 605 l 229 602 l 229 558 l 157 551 l 153 765 l 508 788 l 508 768 l 614 773 l 605 612 l 584 615 l 587 537 l 668 544 l 672 644 l 646 647 l 641 773 l 786 769 l 784 783 l 1112 797 l 1107 562 l 1036 561 l 1037 625 l 904 625 l 904 526 l 1040 527 l 1037 456 l 939 461 l 947 395 l 1025 393 l 1030 430 l 1128 434 m 837 373 l 833 606 l 791 601 l 790 615 l 775 615 l 764 318 l 807 319 l 804 375 l 837 373 "},"‚":{"x_min":0,"x_max":0,"ha":1389},"½":{"x_min":0,"x_max":0,"ha":1389},"Æ":{"x_min":0,"x_max":0,"ha":1389},"Ë":{"x_min":0,"x_max":0,"ha":1389},"'":{"x_min":41,"x_max":303.5,"ha":365,"o":"m 303 1065 l 284 569 l 53 557 l 41 1060 l 303 1065 "},"Š":{"x_min":0,"x_max":0,"ha":1389},"ª":{"x_min":0,"x_max":0,"ha":1389},"Œ":{"x_min":0,"x_max":0,"ha":1389},"˛":{"x_min":0,"x_max":0,"ha":1389},"ð":{"x_min":0,"x_max":0,"ha":1389},"T":{"x_min":34,"x_max":625.671875,"ha":622,"o":"m 625 951 l 618 622 l 503 612 l 500 706 l 418 705 l 420 180 l 486 180 l 481 11 l 171 0 l 164 163 l 247 165 l 254 644 l 160 640 l 161 568 l 40 555 l 34 912 l 625 951 "},"š":{"x_min":0,"x_max":0,"ha":1389},"Þ":{"x_min":0,"x_max":0,"ha":1389},"j":{"x_min":28,"x_max":608.546875,"ha":601,"o":"m 608 996 l 594 805 l 537 804 l 533 251 q 466 26 533 83 q 290 -16 418 -16 q 115 52 155 -16 l 112 -33 l 28 -26 l 51 480 l 250 487 l 248 345 q 250 236 248 248 q 308 159 261 159 q 368 325 368 159 q 361 748 368 416 l 280 747 l 262 984 l 608 996 "},"1":{"x_min":40,"x_max":403.890625,"ha":393,"o":"m 403 11 l 52 0 l 40 267 l 128 283 l 135 677 l 69 677 l 51 997 l 337 991 l 327 297 l 394 297 l 403 11 "},"›":{"x_min":0,"x_max":0,"ha":1389},"ı":{"x_min":0,"x_max":0,"ha":1389},"ä":{"x_min":0,"x_max":0,"ha":1389},"<":{"x_min":151,"x_max":792.671875,"ha":793,"o":"m 792 772 l 789 537 l 718 537 l 718 600 l 584 600 l 584 500 l 718 502 l 718 430 l 620 436 l 616 328 l 695 328 l 695 380 l 789 385 l 789 172 l 473 164 l 471 308 l 508 308 l 513 581 l 471 576 l 471 635 l 452 633 l 364 465 l 364 357 l 406 357 l 393 200 l 222 188 l 214 335 l 268 340 l 271 467 l 189 612 l 157 608 l 151 769 l 310 772 l 316 642 l 282 639 l 330 518 l 370 635 l 339 635 l 339 792 l 495 789 l 494 759 l 792 772 "},"£":{"x_min":0,"x_max":0,"ha":1389},"¹":{"x_min":0,"x_max":0,"ha":1389},"t":{"x_min":34,"x_max":621.5,"ha":622,"o":"m 621 982 l 618 541 l 497 554 l 499 698 l 404 686 l 411 151 l 495 149 l 488 -14 l 178 -2 l 172 166 l 239 166 l 240 705 l 157 706 l 156 598 l 39 608 l 34 951 l 621 982 "},"¬":{"x_min":0,"x_max":0,"ha":1389},"ù":{"x_min":0,"x_max":0,"ha":1389},"W":{"x_min":12,"x_max":849.5,"ha":843,"o":"m 849 976 l 848 731 l 775 733 l 775 277 l 846 279 l 838 38 l 528 43 l 402 490 l 207 3 l 53 11 l 43 259 l 146 265 l 96 748 l 28 738 l 12 940 l 327 940 l 321 768 l 217 763 l 259 365 l 432 775 l 630 308 l 623 726 l 539 718 l 532 970 l 849 976 "},"ï":{"x_min":0,"x_max":0,"ha":1389},">":{"x_min":132.953125,"x_max":1376.0625,"ha":1381,"o":"m 1376 226 l 1370 460 l 1301 460 l 1301 397 l 1168 397 l 1168 494 l 1301 494 l 1301 566 l 1202 562 l 1202 669 l 1276 669 l 1276 618 l 1374 614 l 1370 826 l 1058 833 l 1058 741 q 857 809 1026 819 l 727 802 l 727 833 l 418 827 l 416 725 q 288 798 393 793 q 165 768 196 802 q 137 658 137 740 l 133 364 q 165 250 131 286 q 280 217 199 214 q 420 305 401 219 l 417 244 l 614 237 l 608 379 l 548 386 l 552 662 l 652 658 l 652 566 l 731 556 l 731 688 l 736 610 l 776 610 l 777 364 l 738 359 l 738 217 l 852 221 q 987 239 945 223 q 1051 293 1034 254 l 1048 240 l 1376 226 m 1096 416 l 1065 420 l 1070 657 q 1069 686 1070 672 l 1089 688 l 1096 416 m 959 593 l 959 451 q 950 414 959 422 q 906 403 942 405 l 852 403 l 851 642 l 907 642 q 959 593 959 640 m 458 403 l 426 403 l 426 653 q 424 688 426 672 l 455 688 l 458 403 m 326 438 q 314 390 326 406 q 280 377 303 375 q 239 391 248 380 q 228 434 230 402 l 226 573 q 280 627 224 622 q 323 575 321 633 l 326 438 "},"v":{"x_min":40,"x_max":630.28125,"ha":618,"o":"m 630 973 l 620 724 l 559 731 l 448 0 l 238 -17 l 98 723 l 55 729 l 40 988 l 340 1007 l 338 693 l 252 695 l 352 123 l 462 724 l 403 724 l 394 981 l 630 973 "},"û":{"x_min":0,"x_max":0,"ha":1389},"Ò":{"x_min":0,"x_max":0,"ha":1389},"&":{"x_min":45,"x_max":1111.828125,"ha":1163,"o":"m 1111 362 q 1067 238 1114 272 q 900 212 1021 205 l 764 220 l 775 415 l 818 412 l 820 658 l 793 661 l 792 626 l 751 631 l 746 240 l 635 231 l 513 659 l 513 367 l 554 365 l 547 197 l 390 197 l 388 260 l 264 267 l 254 380 l 290 380 l 282 456 l 201 456 l 189 336 l 225 336 l 229 227 l 45 220 l 50 336 l 81 336 l 133 691 l 100 691 l 96 825 l 370 806 l 367 679 l 333 679 l 381 380 l 410 380 l 410 344 l 433 345 l 431 631 l 399 636 l 390 790 l 558 784 l 671 384 l 676 626 l 636 631 l 633 761 l 778 773 l 778 805 l 893 801 q 1060 768 1018 797 q 1106 651 1103 740 l 1111 362 m 1003 500 l 1001 641 q 992 679 1001 670 q 949 690 983 687 l 895 693 l 892 450 l 950 451 q 1003 500 1003 452 m 272 529 l 242 658 l 215 529 l 272 529 "},"˝":{"x_min":0,"x_max":0,"ha":1389},"Ð":{"x_min":0,"x_max":0,"ha":1389},"I":{"x_min":44,"x_max":387.0625,"ha":382,"o":"m 387 1001 l 370 724 l 303 724 l 292 268 l 380 275 l 370 62 l 60 42 l 44 315 l 127 325 l 132 737 l 77 742 l 60 988 l 387 1001 "},"ˉ":{"x_min":0,"x_max":0,"ha":1389},"G":{"x_min":46,"x_max":577.953125,"ha":575,"o":"m 577 996 l 569 640 l 401 650 l 401 698 q 366 730 401 725 q 293 731 358 731 q 227 709 248 731 q 200 598 200 680 l 200 344 q 223 201 200 229 q 286 187 236 187 q 344 274 344 187 l 344 298 l 273 298 l 271 431 l 571 450 l 565 298 l 511 298 l 501 -16 l 380 -18 l 379 43 q 233 -11 307 -11 q 86 50 130 -11 q 46 230 46 105 l 46 754 q 105 936 46 872 q 264 996 162 996 q 366 983 314 996 q 457 940 432 967 l 457 993 l 577 996 "},"`":{"x_min":42,"x_max":676.71875,"ha":732,"o":"m 676 355 q 648 251 676 284 q 539 211 617 215 q 415 240 447 205 q 387 351 387 269 l 383 590 l 323 586 l 322 643 l 273 641 l 273 326 l 314 326 l 311 225 l 125 218 l 119 316 l 171 318 l 175 605 l 118 602 l 118 558 l 46 551 l 42 766 l 397 790 l 396 726 q 530 790 423 792 q 653 745 621 787 q 676 628 676 712 l 676 355 m 576 569 q 565 617 576 601 q 530 631 554 633 q 489 618 498 629 q 479 573 480 606 l 476 434 q 530 380 475 387 q 573 434 572 376 l 576 569 "},"·":{"x_min":0,"x_max":0,"ha":1389},"r":{"x_min":39,"x_max":695.9375,"ha":694,"o":"m 695 234 q 665 68 695 111 q 545 26 634 26 q 407 184 407 26 q 411 269 407 225 q 416 343 416 313 q 340 427 416 434 l 275 420 l 280 240 l 343 235 l 339 -10 l 51 -28 l 44 185 l 129 198 l 115 694 l 47 690 l 39 985 l 268 988 q 514 957 447 990 q 589 801 594 917 l 582 648 q 550 557 579 584 q 443 515 522 529 q 565 380 561 515 q 562 341 565 366 q 559 309 559 316 q 591 282 559 288 q 618 295 612 277 q 620 351 620 306 l 620 379 l 694 384 q 695 234 695 362 m 409 690 q 391 734 411 718 q 339 748 370 751 l 261 743 l 269 587 l 336 588 q 391 598 377 588 q 407 648 404 608 l 409 690 "},"¿":{"x_min":0,"x_max":0,"ha":1389},"ý":{"x_min":0,"x_max":0,"ha":1389},"x":{"x_min":44,"x_max":669.015625,"ha":654,"o":"m 669 1001 l 662 746 l 599 737 l 466 498 l 616 290 l 653 290 l 646 9 l 364 0 l 356 247 l 448 265 l 342 425 l 253 269 l 328 269 l 306 0 l 50 0 l 44 265 l 125 277 l 264 508 l 107 723 l 46 722 l 50 997 l 352 995 l 355 730 l 302 733 l 382 594 l 470 737 l 396 744 l 396 974 l 669 1001 "},"è":{"x_min":0,"x_max":0,"ha":1389},"º":{"x_min":0,"x_max":0,"ha":1389},"Ø":{"x_min":0,"x_max":0,"ha":1389},"∞":{"x_min":0,"x_max":0,"ha":1389},"μ":{"x_min":0,"x_max":0,"ha":1389},"÷":{"x_min":0,"x_max":0,"ha":1389},"h":{"x_min":16,"x_max":656.28125,"ha":651,"o":"m 656 974 l 646 724 l 572 730 l 581 227 l 622 231 l 620 25 l 356 34 l 349 234 l 431 227 l 431 344 l 257 352 l 261 226 l 313 227 l 313 0 l 24 -11 l 16 223 l 109 227 l 91 724 l 25 724 l 17 978 l 313 988 l 306 776 l 264 773 l 270 466 l 404 454 l 410 724 l 374 719 l 360 988 l 656 974 "},".":{"x_min":87,"x_max":349.5,"ha":365,"o":"m 349 190 l 330 -27 l 98 -39 l 87 185 l 349 190 "},";":{"x_min":87,"x_max":349.5,"ha":365,"o":"m 334 760 l 330 545 l 106 527 l 87 746 l 334 760 m 349 190 l 330 -305 l 98 -317 l 87 186 l 349 190 "},"f":{"x_min":26,"x_max":573.21875,"ha":565,"o":"m 573 631 l 452 637 l 456 759 l 280 751 l 274 554 l 439 564 l 428 454 l 280 454 l 274 297 l 362 298 l 348 15 l 37 27 l 42 272 l 107 272 l 116 756 l 37 751 l 26 1003 l 559 1015 l 573 631 "},"“":{"x_min":0,"x_max":0,"ha":1389},"A":{"x_min":40,"x_max":648.328125,"ha":643,"o":"m 648 -11 l 341 0 l 348 180 l 408 180 l 388 381 l 252 381 l 238 254 l 298 254 l 283 65 l 40 54 l 40 254 l 88 254 l 166 751 l 110 751 l 106 963 l 563 994 l 555 770 l 499 770 l 588 180 l 638 180 l 648 -11 m 365 502 l 319 716 l 270 502 l 365 502 "},"6":{"x_min":39.828125,"x_max":569.15625,"ha":535,"o":"m 569 978 l 546 581 l 334 588 l 340 630 q 341 659 341 645 q 280 733 341 733 q 217 630 212 733 l 224 480 l 226 484 q 352 529 273 529 q 537 324 537 529 l 537 209 q 490 31 537 81 q 308 -24 440 -22 l 296 -24 q 109 31 165 -25 q 51 217 53 88 l 40 727 q 77 910 37 851 q 213 969 117 969 q 287 968 276 969 q 348 934 323 962 l 348 988 l 569 978 m 359 250 l 359 322 q 348 386 359 368 q 292 413 334 413 q 237 386 251 413 q 226 322 226 368 l 226 250 q 235 184 226 202 q 292 158 249 158 q 348 184 334 158 q 359 250 359 204 "},"‘":{"x_min":0,"x_max":0,"ha":1389},"π":{"x_min":0,"x_max":0,"ha":1389},"O":{"x_min":33.96875,"x_max":524.28125,"ha":525,"o":"m 524 259 q 477 86 524 140 q 293 18 424 24 q 88 66 140 9 q 40 251 42 115 l 34 741 q 89 928 32 869 q 279 983 146 987 q 482 909 431 978 q 522 715 522 853 l 524 259 m 356 616 q 338 695 357 669 q 279 719 320 721 q 211 696 227 714 q 195 621 196 677 l 189 391 q 214 322 188 343 q 279 301 234 306 q 350 390 349 294 l 356 616 "},"n":{"x_min":37,"x_max":728.671875,"ha":719,"o":"m 728 963 l 717 715 l 649 724 l 639 70 l 453 56 l 250 769 l 250 283 l 320 278 l 307 0 l 48 0 l 37 244 l 118 245 l 114 724 l 60 730 l 48 988 l 328 978 l 513 312 l 523 714 l 456 724 l 450 940 l 728 963 "},"3":{"x_min":44,"x_max":524.5625,"ha":525,"o":"m 524 242 q 456 64 524 128 q 305 8 395 6 q 46 263 52 12 l 44 409 l 232 395 l 228 368 q 225 344 225 355 q 280 287 225 288 q 344 312 328 286 q 352 377 352 327 l 352 426 q 306 481 352 481 q 271 479 299 481 q 228 477 242 477 l 228 566 l 423 769 l 177 734 l 177 670 l 60 665 l 48 956 l 514 961 l 520 723 l 355 561 l 359 561 q 489 519 453 561 q 524 372 524 477 l 524 242 "},"9":{"x_min":36,"x_max":541.75,"ha":540,"o":"m 541 235 q 505 55 544 112 q 367 -6 463 -6 q 295 -4 306 -6 q 234 29 258 1 l 234 -24 l 54 -19 l 36 312 l 247 305 l 242 263 q 241 234 241 248 q 302 161 241 161 q 365 263 369 161 l 356 413 l 355 409 q 230 365 308 365 q 45 569 45 365 l 45 754 q 94 934 45 882 q 274 988 142 986 l 286 988 q 474 931 417 989 q 530 746 527 875 l 541 235 m 355 572 l 355 644 q 345 709 355 691 q 290 736 331 736 q 233 709 248 736 q 223 644 223 690 l 223 572 q 233 508 223 526 q 290 480 248 480 q 345 508 330 480 q 355 572 355 526 "},"l":{"x_min":32,"x_max":559.78125,"ha":561,"o":"m 559 423 l 550 18 l 37 27 l 32 330 l 98 330 l 102 737 l 44 733 l 37 1001 l 362 1013 l 352 775 l 252 764 l 261 262 l 425 269 l 426 411 l 559 423 "},"¤":{"x_min":0,"x_max":0,"ha":1389},"":{"x_min":0,"x_max":0,"ha":1389},"∂":{"x_min":0,"x_max":0,"ha":1389},"4":{"x_min":16,"x_max":656.28125,"ha":651,"o":"m 656 223 l 647 -11 l 359 0 l 359 227 l 410 226 l 414 352 l 93 344 l 99 730 l 25 723 l 16 974 l 311 988 l 297 719 l 261 723 l 267 458 l 402 466 l 407 773 l 365 776 l 359 988 l 654 978 l 646 723 l 581 723 l 563 227 l 656 223 "},"p":{"x_min":25,"x_max":572.34375,"ha":569,"o":"m 572 801 l 568 562 q 376 388 565 401 q 324 380 372 387 q 270 373 277 373 l 279 254 l 366 247 l 358 13 l 36 0 l 31 229 l 111 227 l 116 722 l 36 723 l 25 969 l 252 988 q 329 990 293 990 q 515 945 456 990 q 572 801 575 901 m 387 666 q 343 727 390 727 q 315 725 331 727 l 270 719 l 279 500 l 315 500 q 384 581 381 500 l 387 666 "},"‡":{"x_min":0,"x_max":0,"ha":1389},"à":{"x_min":0,"x_max":0,"ha":1389},"Ü":{"x_min":0,"x_max":0,"ha":1389},"ó":{"x_min":0,"x_max":0,"ha":1389},"√":{"x_min":0,"x_max":0,"ha":1389}}}
